<svg xmlns:dc="http://purl.org/dc/elements/1.1/" xmlns:cc="http://creativecommons.org/ns#" xmlns:rdf="http://www.w3.org/1999/02/22-rdf-syntax-ns#" xmlns:svg="http://www.w3.org/2000/svg" xmlns="http://www.w3.org/2000/svg" xmlns:sodipodi="http://sodipodi.sourceforge.net/DTD/sodipodi-0.dtd" xmlns:inkscape="http://www.inkscape.org/namespaces/inkscape" version="1.1" x="0px" y="0px" viewBox="0 0 100 125"><g transform="matrix(1.0588236,0,0,1.0588236,2.3529379,-1016.6189)"><path d="m 34.56147,970.3143 c -6.39824,2.20166 -11.84043,7.8967 -17.04955,12.32775 0.93147,-3.81622 3.53276,-8.5118 -0.83972,-9.52879 -4.30101,0.49235 -4.44646,4.81249 -5.13555,8.61605 -8.3494103,2.38196 -6.6070103,7.76414 -8.2387803,11.75584 -1.35033,4.10973 -1.54411,7.75765 3.96724,9.04195 -2.70838,13.3812 7.0111103,14.8109 14.3722803,18.5099 -3.12889,2.0858 -12.1002103,5.2603 -6.23082,7.0949 -2.27896,4.5055 1.43503,6.0216 10.36847,3.7482 0.89938,1.2881 3.63588,2.1524 7.02186,2.5313 1.0104,-0.8209 2.63042,-1.6603 4.16195,-2.4583 -2.0152,0 -3.9656,-0.151 -5.57362,-0.4381 -2.28169,-0.4075 -3.77845,-1.4151 -3.69955,-1.3021 a 2.3458648,2.3458648 0 0 0 -2.49478,-0.9371 c -4.27002,1.0868 -7.22728,1.0386 -7.98323,0.7545 -0.0695,-0.026 -0.041,0 -0.073,-0.012 0.007,-0.017 -0.0323,-0.3697 0.36508,-1.1561 a 2.3458648,2.3458648 0 0 0 -0.57195,-2.8233 c 1.62045,-1.0073 4.18314,-2.1764 6.01173,-3.3953 a 2.3458648,2.3458648 0 0 0 -0.24339,-4.0281 c -3.94271,-1.9813 -8.04881,-3.3053 -10.52665,-5.3546 -2.4781203,-2.0494 -3.8468703,-4.4722 -2.6042903,-10.6119 a 2.3458648,2.3458648 0 0 0 -1.76461,-2.73813 c -2.27413,-0.53009 -2.63657,-1.09324 -2.85983,-1.83763 -0.22306,-0.74438 -0.0489,-2.27156 0.57195,-4.16199 l -0.0241,0 c 1.00117,-2.54373 0.99654,-4.81821 1.59419,-6.38904 0.60988,-1.6028 1.41518,-2.81905 5.0990303,-3.86988 a 2.3458648,2.3458648 0 0 0 1.66725,-1.83763 c 0.36739,-2.02922 0.62032,-3.94804 1.08311,-5.08687 0.39613,-0.9747 0.69594,-1.29777 1.60638,-1.48469 0.0109,0.0156 0.18066,0.0697 0.18253,0.073 0.006,0.0105 0.1014,0.27812 0.0241,0.90054 -0.15328,1.24508 -0.98883,3.36873 -1.52117,5.54933 a 2.3458648,2.3458648 0 0 0 3.80905,2.3244 c 4.82795,-4.10673 9.65095,-8.79199 14.66431,-11.11083 0.71923,1.22482 1.06648,2.245 0.98575,2.89636 -0.11301,0.91234 -0.70533,1.83412 -2.06882,2.88416 -2.72758,2.10022 -8.00945,3.95478 -12.49817,5.82925 a 2.3458648,2.3458648 0 0 0 -1.38729,2.64077 c 0.448,2.1927 1.31299,4.49982 3.22492,6.2795 0.56708,0.52771 1.21209,0.97683 1.93498,1.37518 0.34881,-0.56339 0.79392,-1.09188 1.36299,-1.5942 -2.62403,-1.35956 -3.69558,-3.63657 -4.22286,-6.21866 8.71575,-3.63993 21.46809,-7.10247 13.53256,-16.75748 z m 22.30679,9.77214 c -6.39835,2.20174 -11.84019,7.8967 -17.04954,12.32779 0.9317,-3.8163 3.53264,-8.51188 -0.83968,-9.52879 -4.30118,0.49235 -4.43451,4.81241 -5.12341,8.61605 -8.34949,2.38193 -6.63142,7.77637 -8.26311,11.76801 -1.3503,4.1097 -1.53193,7.7453 3.97942,9.0298 -2.70842,13.3811 7.01108,14.811 14.37228,18.5099 -3.12896,2.0859 -12.10017,5.2602 -6.23082,7.0948 -2.27892,4.5055 1.435,6.0338 10.36847,3.7604 2.93008,4.1966 25.28762,3.8119 26.4566,-2.7503 17.51307,-5.0203 14.35494,-16.3786 7.49645,-14.6887 -3.19205,-17.7189 -11.37888,-26.98657 -29.21911,-19.885 -6.70292,-0.435 -8.68802,-3.6064 -9.48011,-7.4843 1.16509,-0.48655 2.40074,-0.97684 3.65087,-1.4725 0.7713,0.3751 1.50019,0.8222 2.17837,1.3508 1.61417,1.25832 3.02912,3.03737 4.24716,5.2937 0.63434,-0.2882 1.34718,-0.5225 2.14185,-0.6936 -1.62302,-3.02837 -3.63444,-5.38584 -6.12128,-6.94884 7.23815,-3.01891 13.61734,-6.77781 7.43559,-14.29922 z" style="" fill="#000000" fill-opacity="1" stroke="none"/></g><text x="0" y="115" fill="#000000" font-size="5px" font-weight="bold" font-family="'Helvetica Neue', Helvetica, Arial-Unicode, Arial, Sans-serif">Created by H Y P E R M O R G E N</text><text x="0" y="120" fill="#000000" font-size="5px" font-weight="bold" font-family="'Helvetica Neue', Helvetica, Arial-Unicode, Arial, Sans-serif">from the Noun Project</text></svg>